<svg width="320" height="640" viewBox="0 0 320 640" fill="none" xmlns="http://www.w3.org/2000/svg">
  <g opacity="0.4" stroke="#D4D9E3" stroke-width="2" stroke-linecap="round" stroke-linejoin="round">
    <path d="M172 96C172 53.384 137.294 18 96 18S20 53.384 20 96v104c0 28.674 13.36 67.474 36.4 88.776 7.6 6.952 18.48 13.224 30.16 13.224 11.68 0 22.56-6.272 30.16-13.224C158.64 267.474 172 228.674 172 200V96Z"/>
    <path d="M96 326c24.664 0 53.92 10.88 72 27.2 13.6 12.464 22 28.08 22 45.6s-8.4 33.136-22 45.6C149.92 461.72 120.664 472.6 96 472.6 71.336 472.6 42.08 461.72 24 444.4 10.4 431.936 2 416.32 2 398.8s8.4-33.136 22-45.6C38.08 336.88 67.336 326 92 326h4Z"/>
    <path d="M76 232c5.52 10.48 11.04 17.6 20 22.4 14.88 7.872 32.16 1.376 44.24-10.832 12.08-12.208 17.76-29.408 19.04-46.992"/>
    <path d="M118 182c0 11.046-8.954 20-20 20s-20-8.954-20-20"/>
    <path d="M58 182c0 11.046-8.954 20-20 20s-20-8.954-20-20"/>
    <path d="M90 156c-2-6-8-10-14-10s-12 4-14 10"/>
    <path d="M40 156c-2-6-8-10-14-10s-12 4-14 10"/>
    <path d="M96 38c-24 8-40 24-48 52"/>
    <path d="M36 96c0-36 20-64 60-76"/>
    <path d="M182 522c0 24-8 44-24 60s-36 24-62 24-46-8-62-24-24-36-24-60c0-24 8-44 24-60s36-24 62-24 46 8 62 24 24 36 24 60Z"/>
    <path d="M102 584c-2 6-8 10-14 10s-12-4-14-10"/>
    <path d="M158 584c-2 6-8 10-14 10s-12-4-14-10"/>
    <path d="M86 542c4 4 6 10 6 16 0 12-10 20-22 20s-22-8-22-20c0-6 2-12 6-16"/>
    <path d="M170 542c4 4 6 10 6 16 0 12-10 20-22 20s-22-8-22-20c0-6 2-12 6-16"/>
  </g>
</svg>
