<svg width="720" height="360" viewBox="0 0 720 360" fill="none" xmlns="http://www.w3.org/2000/svg">
  <g stroke="#D4D9E3" stroke-width="1.5" stroke-linecap="round" stroke-linejoin="round" opacity="0.6">
    <!-- left shrine roof -->
    <path d="M56 180h192l-16-48H72L56 180Z"/>
    <path d="M56 180 96 148h112l40 32"/>
    <path d="M64 164h168"/>
    <path d="M120 148c12-10 32-22 52-22s40 12 52 22"/>
    <path d="M140 160c4-6 12-14 32-14s28 8 32 14"/>
    <!-- pediment relief -->
    <path d="M108 168h88l-10-24h-68l-10 24Z"/>
    <path d="M112 156h80"/>
    <path d="M128 168v-20"/>
    <path d="M140 168v-20"/>
    <path d="M152 168v-20"/>
    <path d="M164 168v-20"/>
    <path d="M176 168v-20"/>
    <path d="M188 168v-20"/>
    <!-- columns and base -->
    <path d="M60 180h184v76H60V180Z"/>
    <path d="M76 192h24v64H76v-64Z"/>
    <path d="M116 192h24v64h-24v-64Z"/>
    <path d="M156 192h24v64h-24v-64Z"/>
    <path d="M196 192h24v64h-24v-64Z"/>
    <path d="M60 256h184"/>
    <!-- steps -->
    <path d="M68 272h168v18H68v-18Z"/>
    <path d="M84 290h136v18H84V290Z"/>
    <path d="M100 308h104v18H100v-18Z"/>
    <!-- walkway rail -->
    <path d="M244 256h40l16 48h-40l-16-48Z"/>
    <path d="M228 212h64"/>
    <!-- grand stair -->
    <path d="M288 256h104v72h-88"/>
    <path d="M308 328 288 256"/>
    <path d="M324 256v72"/>
    <path d="M340 256v72"/>
    <path d="M356 256v72"/>
    <path d="M372 256v72"/>
    <!-- main hall -->
    <path d="M376 224h280v140H376V224Z"/>
    <path d="M400 248h232v96H400v-96Z"/>
    <path d="M400 292h232"/>
    <path d="M400 268h232"/>
    <path d="M428 248v96"/>
    <path d="M456 248v96"/>
    <path d="M484 248v96"/>
    <path d="M512 248v96"/>
    <path d="M540 248v96"/>
    <path d="M568 248v96"/>
    <path d="M596 248v96"/>
    <path d="M624 248v96"/>
    <path d="M652 248v96"/>
    <!-- balcony arches -->
    <path d="M408 268c6-10 16-16 28-16s22 6 28 16"/>
    <path d="M452 268c6-10 16-16 28-16s22 6 28 16"/>
    <path d="M496 268c6-10 16-16 28-16s22 6 28 16"/>
    <path d="M540 268c6-10 16-16 28-16s22 6 28 16"/>
    <path d="M584 268c6-10 16-16 28-16s22 6 28 16"/>
    <path d="M628 268c6-10 16-16 28-16s22 6 28 16"/>
    <!-- windows row -->
    <path d="M420 308h24v24h-24v-24Z"/>
    <path d="M452 308h24v24h-24v-24Z"/>
    <path d="M484 308h24v24h-24v-24Z"/>
    <path d="M516 308h24v24h-24v-24Z"/>
    <path d="M548 308h24v24h-24v-24Z"/>
    <path d="M580 308h24v24h-24v-24Z"/>
    <path d="M612 308h24v24h-24v-24Z"/>
    <!-- dome base -->
    <path d="M472 224v-54h88v54"/>
    <path d="M488 170h56"/>
    <path d="M496 160h40"/>
    <!-- lower dome -->
    <path d="M480 170c0-22 20-44 52-44s52 22 52 44"/>
    <path d="M492 150c4-16 20-34 40-34s36 18 40 34"/>
    <!-- upper dome -->
    <path d="M508 116c6-12 18-22 32-22s26 10 32 22"/>
    <path d="M516 106c4-8 12-16 24-16s20 8 24 16"/>
    <path d="M524 94c4-6 10-10 16-10s12 4 16 10"/>
    <path d="M540 82v-18"/>
    <path d="M532 64h16"/>
    <path d="M540 64v-12"/>
    <!-- small side domes -->
    <path d="M382 224v-24h48v24"/>
    <path d="M382 200c0-18 18-38 48-38s48 20 48 38"/>
    <path d="M646 224v-24h48v24"/>
    <path d="M646 200c0-18 18-38 48-38s48 20 48 38"/>
    <path d="M394 184c4-12 16-24 36-24s32 12 36 24"/>
    <path d="M658 184c4-12 16-24 36-24s32 12 36 24"/>
    <!-- landscaping -->
    <path d="M360 332c0-10 8-18 20-18s20 8 20 18-8 18-20 18-20-8-20-18Z"/>
    <path d="M652 332c0-10 8-18 20-18s20 8 20 18-8 18-20 18-20-8-20-18Z"/>
    <!-- deck rail -->
    <path d="M288 244h88"/>
    <path d="M288 236h88"/>
    <path d="M308 236v8"/>
    <path d="M324 236v8"/>
    <path d="M340 236v8"/>
    <path d="M356 236v8"/>
    <!-- statues -->
    <path d="M84 256c6-12 10-24 10-36 0-8-2-16-6-22"/>
    <path d="M204 256c6-12 10-24 10-36 0-8-2-16-6-22"/>
  </g>
</svg>
